<?xml version="1.0" encoding="UTF-8"?>
<!DOCTYPE svg PUBLIC "-//W3C//DTD SVG 1.1//EN" "http://www.w3.org/Graphics/SVG/1.1/DTD/svg11.dtd">
<!-- Creator: CorelDRAW 2019 (64 Bit) -->
<svg xmlns="http://www.w3.org/2000/svg" xml:space="preserve" width="91.44mm" height="91.44mm" version="1.1" style="shape-rendering:geometricPrecision; text-rendering:geometricPrecision; image-rendering:optimizeQuality; fill-rule:evenodd; clip-rule:evenodd"
viewBox="0 0 91440 91440"
 xmlns:xlink="http://www.w3.org/1999/xlink"
 xmlns:xodm="http://www.corel.com/coreldraw/odm/2003">
 <defs>
  <style type="text/css">
   <![CDATA[
    .fil0 {fill:#FDFDFD}
   ]]>
  </style>
 </defs>
 <g id="Camada_x0020_1">
  <metadata id="CorelCorpID_0Corel-Layer"/>
  <path class="fil0" d="M31376.3 49312.9c-2476.8,169.9 -4801.5,-195.5 -7335.4,44.8 -8409.4,796.8 -15565.5,4222 -18641.4,12438.8 -624.4,1667.7 -968.5,4985.9 -612.8,7037.4 749.4,4321.2 3159.6,7515.2 5678.5,9815.6 8945.5,8169.1 26690.3,7643.7 37693,4370.4 2188,-651 3947.1,-1212.5 5945.3,-1899.1 1954.2,-671.5 4129.2,-1795.3 5537.6,-2294.1 -219.9,-683.9 -3315.6,-4058.9 -4115,-4859.8l-2100.6 -2406.1c-613.7,-776.7 -1562.7,-1772.2 -2192,-2368.4 -814.1,96.8 -3188.5,1222.8 -4122.1,1609.6 -9720,4029.1 -36274.3,9072 -38197.2,-4926.6 -460.2,-3349.7 1841.9,-6569.9 3370.8,-8041.8 1801.5,-1734.5 4697.9,-3085.8 7650.7,-3834.3 3682,-933.2 6767.8,-335.7 10154.4,513.2 137,684.9 -892.4,7669.1 312.6,13678.1 309.6,1544.4 536.7,2557.6 1112.9,3889.2 2680,169.3 4974.6,-182.7 6578.1,-141.9 -196.5,-1145.3 -603.9,-466.7 -1433.5,-2969.8 -935.5,-2822.1 -1196.3,-10429.5 -570.3,-12008.4 1611.4,24.1 12112.4,7273.6 14308,8951.8l6151.5 5532.5c4034.6,4138.8 9728.7,11019.2 10890.7,16460l19356.6 32.3c-84.5,-1526.7 -2109.2,-4839.5 -2820.3,-5878.9 -533.1,-779.5 -1248,-1797.1 -1812,-2518.4 -1198.7,-1533.4 -4977.9,-5860.7 -6381.6,-6960.8l-4602 -4330.4c317.3,-724.7 2116.8,-2854.7 3053.9,-4366.3 2486.9,-4012.3 3079.5,-5611.1 4587.4,-10076 708.2,-2096.8 796.1,-4244.8 1157.9,-6343 952.8,-5525.2 -960.8,-13468.7 -3420.8,-18398.4 -4129.4,-8275.6 -10362.7,-13843.1 -18466.6,-18563.4 -5635.7,-3282.7 -15027.6,-6898.8 -22637.8,-6997 466.4,1193 3467,3804.2 4645,10318.8 1128,6237.2 -307.2,13377.9 -2620.7,19128.5 -1761.5,4378.8 -2497.5,5382.1 -4387.1,10658 -366,1022.1 -580.7,1895.2 -872.8,2798.8 -218.5,676.4 -600.5,2460.5 -842.9,2905.1zm5506.8 746.2c613.2,321.4 4902.8,1284.6 6718.8,1947 2058,750.5 4384.4,1587.8 6225,2451.6 3073.8,1442.3 5699.8,2857.8 8476.6,4553.1 725.1,442.7 2070.6,1399.6 2864.5,1626.6l2425.3 -2896.8c876.1,-1086.7 1632.5,-2238.9 2258.1,-3239.1 1480.3,-2367.5 2697.1,-4605.6 3621.3,-7380.6 2900.7,-8712.1 1009.3,-19125.2 -5135.4,-25351.3 -3397.6,-3442.7 -8282.2,-7280.2 -12606.7,-9419.6 -1594.8,-788.9 -6380.9,-2974.8 -8070.6,-2752.5 0.4,218.3 570.6,1761.3 670.1,2118.7 1637.8,5877.7 823.3,13627.6 -1169.9,19290.2l-6277.1 19052.7z"/>
 </g>
</svg>
